HIERARCHY
ROOT Hips
{
	OFFSET -14.64140 90.27770 -84.91600
	CHANNELS 6 Xposition Yposition Zposition Zrotation Xrotation Yrotation
	JOINT Spine
	{
		OFFSET 0.00000 13.20850 -1.60436
		CHANNELS 3 Zrotation Xrotation Yrotation
		JOINT Spine1
		{
			OFFSET 0.00000 8.61716 0.00000
			CHANNELS 3 Zrotation Xrotation Yrotation
			JOINT Spine2
			{
				OFFSET 0.00000 8.61717 0.00000
				CHANNELS 3 Zrotation Xrotation Yrotation
				JOINT Spine3
				{
					OFFSET 0.00000 8.61717 0.00000
					CHANNELS 3 Zrotation Xrotation Yrotation
					JOINT Neck
					{
						OFFSET 0.00000 11.07920 1.10792
						CHANNELS 3 Zrotation Xrotation Yrotation
						JOINT Neck1
						{
							OFFSET 0.00000 7.08032 0.00000
							CHANNELS 3 Zrotation Xrotation Yrotation
							JOINT Head
							{
								OFFSET 0.00000 7.08031 0.00000
								CHANNELS 3 Zrotation Xrotation Yrotation
								End site
								{
									OFFSET 0.00000 0.00000 0.00000
								}
							}
						}
					}
					JOINT RightShoulder
					{
						OFFSET -0.01000 7.91373 5.19711
						CHANNELS 3 Zrotation Xrotation Yrotation
						JOINT RightArm
						{
							OFFSET -18.41580 0.00000 0.00000
							CHANNELS 3 Zrotation Xrotation Yrotation
							JOINT RightForeArm
							{
								OFFSET -29.11090 0.00000 0.00000
								CHANNELS 3 Zrotation Xrotation Yrotation
								JOINT RightHand
								{
									OFFSET -24.65040 0.00000 0.00000
									CHANNELS 3 Zrotation Xrotation Yrotation
									JOINT RightHandThumb1
									{
										OFFSET -5.35114 -0.85590 3.97906
										CHANNELS 3 Zrotation Xrotation Yrotation
										JOINT RightHandThumb2
										{
											OFFSET -4.52789 0.00000 0.00000
											CHANNELS 3 Zrotation Xrotation Yrotation
											JOINT RightHandThumb3
											{
												OFFSET -2.46976 0.00000 0.00000
												CHANNELS 3 Zrotation Xrotation Yrotation
												End site
												{
													OFFSET 0.00000 0.00000 0.00000
												}
											}
										}
									}
									JOINT RightHandIndex1
									{
										OFFSET -14.26970 0.00000 2.88139
										CHANNELS 3 Zrotation Xrotation Yrotation
										JOINT RightHandIndex2
										{
											OFFSET -5.48836 0.00000 0.00000
											CHANNELS 3 Zrotation Xrotation Yrotation
											JOINT RightHandIndex3
											{
												OFFSET -3.01859 0.00000 0.00000
												CHANNELS 3 Zrotation Xrotation Yrotation
												End site
												{
													OFFSET 0.00000 0.00000 0.00000
												}
											}
										}
									}
									JOINT RightHandMiddle1
									{
										OFFSET -14.26970 0.00000 -0.09147
										CHANNELS 3 Zrotation Xrotation Yrotation
										JOINT RightHandMiddle2
										{
											OFFSET -6.17441 0.00000 0.00000
											CHANNELS 3 Zrotation Xrotation Yrotation
											JOINT RightHandMiddle3
											{
												OFFSET -3.56743 0.00000 0.00000
												CHANNELS 3 Zrotation Xrotation Yrotation
												End site
												{
													OFFSET 0.00000 0.00000 0.00000
												}
											}
										}
									}
									JOINT RightHandRing1
									{
										OFFSET -12.69180 0.00000 -3.06433
										CHANNELS 3 Zrotation Xrotation Yrotation
										JOINT RightHandRing2
										{
											OFFSET -5.62556 0.00000 0.00000
											CHANNELS 3 Zrotation Xrotation Yrotation
											JOINT RightHandRing3
											{
												OFFSET -3.56744 0.00000 0.00000
												CHANNELS 3 Zrotation Xrotation Yrotation
												End site
												{
													OFFSET 0.00000 0.00000 0.00000
												}
											}
										}
									}
									JOINT RightHandPinky1
									{
										OFFSET -11.11390 0.00000 -6.03719
										CHANNELS 3 Zrotation Xrotation Yrotation
										JOINT RightHandPinky2
										{
											OFFSET -4.52789 0.00000 0.00000
											CHANNELS 3 Zrotation Xrotation Yrotation
											JOINT RightHandPinky3
											{
												OFFSET -2.46976 0.00000 0.00000
												CHANNELS 3 Zrotation Xrotation Yrotation
												End site
												{
													OFFSET 0.00000 0.00000 0.00000
												}
											}
										}
									}
								}
							}
						}
					}
					JOINT LeftShoulder
					{
						OFFSET 0.01000 7.91373 5.19711
						CHANNELS 3 Zrotation Xrotation Yrotation
						JOINT LeftArm
						{
							OFFSET 18.41580 0.00000 0.00000
							CHANNELS 3 Zrotation Xrotation Yrotation
							JOINT LeftForeArm
							{
								OFFSET 29.11090 0.00000 0.00000
								CHANNELS 3 Zrotation Xrotation Yrotation
								JOINT LeftHand
								{
									OFFSET 24.65040 0.00000 0.00000
									CHANNELS 3 Zrotation Xrotation Yrotation
									JOINT LeftHandThumb1
									{
										OFFSET 5.35114 -0.85590 3.97906
										CHANNELS 3 Zrotation Xrotation Yrotation
										JOINT LeftHandThumb2
										{
											OFFSET 4.52789 0.00000 0.00000
											CHANNELS 3 Zrotation Xrotation Yrotation
											JOINT LeftHandThumb3
											{
												OFFSET 2.46977 0.00000 0.00000
												CHANNELS 3 Zrotation Xrotation Yrotation
												End site
												{
													OFFSET 0.00000 0.00000 0.00000
												}
											}
										}
									}
									JOINT LeftHandIndex1
									{
										OFFSET 14.26970 0.00000 2.88139
										CHANNELS 3 Zrotation Xrotation Yrotation
										JOINT LeftHandIndex2
										{
											OFFSET 5.48836 0.00000 0.00000
											CHANNELS 3 Zrotation Xrotation Yrotation
											JOINT LeftHandIndex3
											{
												OFFSET 3.01859 0.00000 0.00000
												CHANNELS 3 Zrotation Xrotation Yrotation
												End site
												{
													OFFSET 0.00000 0.00000 0.00000
												}
											}
										}
									}
									JOINT LeftHandMiddle1
									{
										OFFSET 14.26970 0.00000 -0.09147
										CHANNELS 3 Zrotation Xrotation Yrotation
										JOINT LeftHandMiddle2
										{
											OFFSET 6.17440 0.00000 0.00000
											CHANNELS 3 Zrotation Xrotation Yrotation
											JOINT LeftHandMiddle3
											{
												OFFSET 3.56744 0.00000 0.00000
												CHANNELS 3 Zrotation Xrotation Yrotation
												End site
												{
													OFFSET 0.00000 0.00000 0.00000
												}
											}
										}
									}
									JOINT LeftHandRing1
									{
										OFFSET 12.69180 0.00000 -3.06433
										CHANNELS 3 Zrotation Xrotation Yrotation
										JOINT LeftHandRing2
										{
											OFFSET 5.62556 0.00000 0.00000
											CHANNELS 3 Zrotation Xrotation Yrotation
											JOINT LeftHandRing3
											{
												OFFSET 3.56744 0.00000 0.00000
												CHANNELS 3 Zrotation Xrotation Yrotation
												End site
												{
													OFFSET 0.00000 0.00000 0.00000
												}
											}
										}
									}
									JOINT LeftHandPinky1
									{
										OFFSET 11.11390 0.00000 -6.03719
										CHANNELS 3 Zrotation Xrotation Yrotation
										JOINT LeftHandPinky2
										{
											OFFSET 4.52789 0.00000 0.00000
											CHANNELS 3 Zrotation Xrotation Yrotation
											JOINT LeftHandPinky3
											{
												OFFSET 2.46976 0.00000 0.00000
												CHANNELS 3 Zrotation Xrotation Yrotation
												End site
												{
													OFFSET 0.00000 0.00000 0.00000
												}
											}
										}
									}
								}
							}
						}
					}
					JOINT pCube4
					{
						OFFSET 0.00000 10.91090 1.10792
						CHANNELS 3 Zrotation Xrotation Yrotation
						End site
						{
							OFFSET 0.00000 0.00000 0.00000
						}
					}
				}
			}
		}
	}
	JOINT RightUpLeg
	{
		OFFSET -9.98441 0.00000 0.00000
		CHANNELS 3 Zrotation Xrotation Yrotation
		JOINT RightLeg
		{
			OFFSET 0.00000 -42.11790 0.00000
			CHANNELS 3 Zrotation Xrotation Yrotation
			JOINT RightFoot
			{
				OFFSET 0.00000 -45.00020 -0.00001
				CHANNELS 3 Zrotation Xrotation Yrotation
				JOINT RightForeFoot
				{
					OFFSET 0.00000 -3.74820 0.00000
					CHANNELS 3 Zrotation Xrotation Yrotation
					JOINT RightToeBase
					{
						OFFSET 0.00000 0.06325 14.43120
						CHANNELS 3 Zrotation Xrotation Yrotation
						End site
						{
							OFFSET 0.00000 0.00000 0.00000
						}
					}
				}
			}
		}
	}
	JOINT LeftUpLeg
	{
		OFFSET 9.98441 0.00000 0.00000
		CHANNELS 3 Zrotation Xrotation Yrotation
		JOINT LeftLeg
		{
			OFFSET 0.00000 -42.11800 0.00000
			CHANNELS 3 Zrotation Xrotation Yrotation
			JOINT LeftFoot
			{
				OFFSET 0.00000 -45.00070 0.00000
				CHANNELS 3 Zrotation Xrotation Yrotation
				JOINT LeftForeFoot
				{
					OFFSET 0.00000 -3.74824 0.00000
					CHANNELS 3 Zrotation Xrotation Yrotation
					JOINT LeftToeBase
					{
						OFFSET 0.00000 0.06325 14.43110
						CHANNELS 3 Zrotation Xrotation Yrotation
						End site
						{
							OFFSET 0.00000 0.00000 0.00000
						}
					}
				}
			}
		}
	}
}
MOTION
Frames: 4
Frame Time: 0.050000
-0.026832206775534845 0.04871480974759462 -0.015304792830913141 -0.016893982718445125 0.01257293819665288 0.028645974209309078 -0.680268570903353 2.602931432994186 -1.222011959438709 -0.9324121046512034 3.716418325227311 0.4149894825123643 -1.1424999240673548 -1.1199087247566655 -0.3911758233969084 0.4393676907194253 0.1886891389571731 -0.7211985070701429 0.9335927560257072 11.318476288309535 -3.305811678847128 0.16695995770627306 -1.6880439189406722 -9.333043806453263 1.2764450899512492 -18.232625330908956 -0.8531370872944706 -6.743549801231911 2.455072797341953 -14.903524692370977 78.70821234026843 -1.4950200994932548 15.133666740305348 35.07157815870427 -1.0092711121698559 97.68648795764942 3.428332528252761 0.036819962768365994 -1.7395286292139036 4.487011727374236 -0.09370573758753292 -1.5611082090387156 -0.006125301048042972 0.04762469236834462 -56.202763215123646 -0.044306506018638066 0.007607656384255505 -56.20128458184412 -38.74091816149495 0.0017042576835677656 0.003117629610923974 0.020501964547272742 -0.021450830428503043 -0.002137254821281038 -0.04133565803881081 -0.02922910859276123 -0.006682538573920975 -36.684251974739084 -0.023201262877331565 -0.018784954893379394 0.00019229511177303176 -0.049727533756569645 0.01246764557595488 0.04777879201873746 0.03153456261903307 -0.04774909444364966 -19.807932813833123 0.02912632658799042 -0.040318275064514734 -0.009096561941468326 0.018668486894187743 -0.0274867976843521 -0.008678132483969866 0.013999758535740935 0.03174930194814694 24.053300448784714 -0.0473977302495128 -0.021963717665928938 28.866816408507596 -0.012253386758258966 0.04135102026418667 28.853495282791133 0.02506221791545803 0.016979241249371273 5.324096357062637 1.394914996403591 11.987286716944533 -71.45594294051337 28.199272135147712 -7.401863837777899 -18.122049138221143 -3.3881994355804244 -85.02935594404347 -9.239926080966463 -4.595678902406155 3.554673562362368 -0.4684181609188765 0.08934142981104781 -8.173114344877066 0.0018828966692734776 -0.027891304494555073 44.60794754365322 0.021043516169773756 0.0330032757468115 44.51982279074374 12.438738611717769 -0.016707456107370868 -0.004734932927788058 -0.003305705238998449 0.01605695795521579 0.00668254140274238 -0.03184861663810799 0.035985098244962696 -0.042185090697575756 11.060911683915899 0.009080324769099092 0.033678635077425634 -0.03267821266544281 -0.020973028985990426 -0.005085620205273178 -0.02453189631163911 -0.032774484398656004 -0.01812048342552774 4.7589891372457185 0.03023183741499149 0.03590033961937233 0.017153030962187267 -0.03444034732124812 0.041885965077112515 0.004920966027416471 0.04046156022472472 0.026193618821357328 -5.586816535445152 0.02880042002251444 0.02941276058586952 -6.701365761332248 -0.04911072688649945 0.028556824642921416 -6.729916486835769 0.0010804707976273112 0.0015141369527249611 -0.012679016553670305 0.01229846261048214 0.033407995928939026 8.007391573818197 3.4983745364343592 -19.190355780079273 -0.03180635873020223 10.371316908335077 0.017220132563793792 -5.635750436190464 -15.650775451493509 3.161138947747688 -0.04580457317069167 -0.035172334047332506 -0.024065615923724568 -0.010349007997452845 4.697602658030307 -0.043036006306666756 12.482945627750848 -8.203102031295723 6.838496558601774 -0.046631256635709294 46.37780766995155 0.04552792389344047 -4.353157888777618 -14.755313389944122 -3.873160362604391 0.019745892723622625 -0.027881991548174098 0.017454651728027015 -0.04068935248997824 -10.75504497850923 -0.027472452488858753 
0.02568127484042203 -0.008872006248555922 0.036179856330535665 0.015291357362547131 0.04565082477223491 0.016457419680179105 -0.9117774152362079 2.4143867613761296 -1.2341566958796917 -0.9184746225719572 3.6682819400877995 0.4010050753587263 -1.1010476541510212 -1.1530118826388227 -0.40225348677297323 0.4024488051432818 0.14086511226401308 -0.6677479466031121 0.9837850193947953 11.175101581550885 -3.258796012616039 0.14151485679231535 -1.6905715876198437 -9.133739807245554 1.2846012469737431 -18.201640041448833 -0.7940346072390224 -6.70590099132929 2.5091037684189166 -14.799946692645523 77.83479732499237 -1.2003390341516667 15.584934156045502 30.586253564835335 -0.8062694453335667 99.5892033676744 2.9979102662590056 0.05507393595131567 -1.3046136102285677 4.545365924202122 -0.09807619278576923 -1.6391841446259936 0.04575709768408326 0.0391675658146812 -56.19466035467814 -0.01374079552764746 -0.026166417907811147 -56.24887465076931 -38.77674183628049 -0.032368618293788065 -0.037848122867235476 0.026575869172423897 0.003148975770168849 -0.03478227872945774 0.009118766923018832 -0.011751503091974957 0.005964764600127873 -36.65320425018846 0.03138597043832094 0.0033423205633357793 0.03219112758685593 0.045131676885815875 0.035441738699617094 0.0053767675744807114 -0.015368697987589795 -0.03739203653971541 -19.78177402219959 0.0038811152796017637 0.007888861233344844 0.02306426742758762 0.005295578570683377 -0.02979218482865734 0.021479437505719012 0.02509529124129139 -0.046339303558776204 24.046274401850937 0.010798453199425228 -0.012296020723866832 28.8915684171056 0.0040143631309080795 -0.035489543566201105 28.842742682895896 0.022132558569854934 0.00522742492967521 5.19151448563507 1.4002056767810378 11.87316933119824 -71.06551671303272 29.13299079874744 -7.515326554358795 -13.236912593656292 -3.636237469515981 -85.44881367108106 -9.305247570220205 -4.389973135951677 3.421883612483848 -0.4759668735482366 0.08554107110754107 -8.120787169137195 -0.04774987585927864 0.003668405359857881 44.58105785826326 -0.02774195980849019 0.011918449141912677 44.555129320950535 12.4312078486163 0.016461655072870365 0.013089519471703582 -0.04829990910870384 -0.01786837256899848 0.048548206294718364 -0.019169335682492458 -0.01848156463073493 -0.014114542926877582 11.103814488569657 0.018798864588183157 0.04006312316154002 0.025374537998670954 0.0236464512907603 0.009964559439032478 -0.033536756995108635 0.016385506037419294 -0.004177253329194326 4.75239252159783 -0.014760796042612247 0.03778732790308499 -0.004370392418798554 -0.02925654990042982 0.002799508646418062 -0.03370773234717885 0.01755585037349282 0.008684366437408202 -5.619764542303526 0.03212860101773569 0.020555493789690293 -6.710225499440911 0.029399862999995967 -0.01097877322180517 -6.67939013075141 -0.028249611082157036 -0.04091114635536784 -0.025769258427818104 -0.015407738579469182 -0.023781927737853106 8.06524487143325 3.4920936644332143 -19.20433112693975 -0.017051855612098935 10.391838394559233 -0.004936974954269199 -5.614101690361084 -15.628163132849734 3.1689475747039624 -0.024907870878876102 0.027836341428261243 0.0003864295667981048 -0.04335413018490516 4.65741153540839 0.00530005690793674 12.410186869526624 -8.196392534771293 6.8757770487416465 0.04179205925962969 46.33283978046051 -0.047443713746898354 -4.279068905829366 -14.701991341895056 -3.867124776949958 -0.020307118574178752 -0.02949670149077573 0.025144566506166803 -0.0368711884487805 -10.758895987115746 0.0011341713938703808 
0.02818308492930796 0.008080133579735247 -0.00818257915508314 0.027631678543066408 -0.019459749730559358 -0.04275325629836523 -1.0400683260758299 2.251339800246972 -1.2191283162028554 -0.9374378585485563 3.6126898188757854 0.3844773212914012 -1.1530570950648145 -1.174187561924562 -0.3751790620929474 0.28863105751088247 0.08485798906174497 -0.7307526687538473 0.9583527111645406 11.201406665177785 -3.1084801477427493 0.22270234546429604 -1.6088786156717934 -8.83419575345022 1.299211059478014 -18.11188479625482 -0.7399002542934546 -6.599362496724487 2.487160256119894 -14.729344852709273 77.15428843592977 -0.5375113179917829 15.936693232371288 27.210357426015573 -0.8872272292468709 101.07585871736778 2.7689455389163555 0.045918927982536585 -1.030541462606391 4.544218768340624 -0.1232288834847265 -1.5581620152279465 -0.017682607258349494 -0.015294035069611116 -56.22272981219238 0.026724329362453746 0.044545222839449256 -56.271465060798036 -38.793122692267616 0.013060064468281953 0.027521496505993674 0.042191748634940116 -0.03731399470566629 -0.03828844845238678 -0.029353519062703736 -0.013570710503280549 -0.04316742119108703 -36.66675122730338 -0.02077181240241179 0.039757984788618125 -0.001715828956231137 0.0008041533469505101 0.023109550889666246 0.006373744971276385 -0.006523885031287644 -0.014097867101715822 -19.793455929965408 -0.0071762227383588 0.001969916991136293 0.02951771326809373 0.04868833038030971 0.028570845432650593 0.017913666689506492 -0.019536610669957172 -0.003403819889999178 24.086527480607757 0.017882136252379218 -0.04577766229492138 28.881230124852316 0.0008245176707577969 -0.019541559295693102 28.887919468764125 0.0019464620125065142 -0.013022487640181359 5.147491331148888 1.3503658547637831 11.84369364492434 -70.90480393626301 29.87746316442166 -7.9086610204764565 -10.165287315371106 -3.869115221425661 -86.27087480042351 -9.434858184600879 -4.221819611138038 3.200689716396321 -0.5199076544506153 0.11594051594781768 -8.104941892606716 -0.015499152622338742 0.0024553328922082424 44.55343423075064 0.042814605026725454 0.013144030245368858 44.52213937848806 12.455078176553528 0.028674259928847964 -0.037401951748551085 0.02508910055787964 0.040967448230479334 -0.04423076224060387 0.017419458020549783 0.009515391997588865 0.005963878641836489 11.09735179851911 -0.007553456488591771 0.003204276643599285 -0.03053694401463756 0.04518529046356319 -0.03180859283635313 -0.02165865504023001 0.008390078547506629 0.025055107497664042 4.7587426151547145 -0.014375255305394083 -0.03401856173143453 0.0019182120687424602 -0.048265978022621614 -0.0025657843487318227 -0.02231957878147422 0.03236318064563933 0.002020793290218132 -5.561032984151903 -0.0005900565335538156 0.00980277267917742 -6.689128116764831 0.04333178806212084 -0.040008297178346475 -6.735986632586477 -0.0019341688807786323 -0.00892396226846759 -0.045998498188342195 -0.040511554964864735 0.013324782564825478 7.997876922769782 3.541853216484717 -19.25366328421196 -0.009786399620838939 10.411673466498849 0.037446438476529606 -5.603183520879525 -15.623642866743392 3.235070746545356 0.027154166922070313 -0.006228297349087356 -0.04608396842523933 -0.007630499300675252 4.661002597976616 -0.002689811309382705 12.467778418989111 -8.25692623707156 6.8837558017012865 -0.04269232837369929 46.39671419077558 -0.03781410352840196 -4.359609356419824 -14.782764030111048 -3.814786302049232 -0.03691582260867948 0.0024263298685972792 -0.04623407887899341 -0.004085984159872937 -10.727740560986595 -0.018007927925432515 
0.020333190550346596 0.01084072841103446 -0.0380725280861853 -0.01260919023360811 -0.007232040393797875 -0.017673090457042486 -1.1787383450352669 2.1167482811441394 -1.1584233702057822 -0.9304649958356265 3.6168204361007548 0.41984374082278475 -1.1433103094934614 -1.279321878250537 -0.4155683403251467 0.2827698710654625 0.04441943502612565 -0.6905520518893715 0.8862509861234837 11.250728743081893 -3.0806176208283174 0.23625082546023893 -1.5907535896122238 -8.67907106374166 1.2266302673885523 -17.978242427931004 -0.7277731516461258 -6.710177942700487 2.526878624899468 -14.618453990987142 76.89000174759524 -0.2182597153838357 16.799695621058873 25.177101943299135 -0.761879180158949 101.93229227015235 2.678936281957507 0.11586123335975454 -0.8015324750829597 4.505288562073791 -0.16888484892321487 -1.5658195996671986 0.027292033226685088 -0.020822235544779133 -56.27238716507177 -0.02264524866684755 0.017555125592695352 -56.23051818760655 -38.811083715406546 -0.03623416064858694 0.02563685888730973 0.03354969358955102 -0.019129363549412987 -0.026369114967608066 -0.01782259382799746 0.02063332199932534 0.04055830980954088 -36.680452788537295 -0.003613584292498511 0.03497818598632817 0.04433574745452208 0.038261468132703855 -0.01198844469767869 0.04952122177680554 0.024298988828278526 -0.013749157757512367 -19.751514812845496 0.014606383360025777 0.01058792296905799 -0.029326367066591558 0.03182335916327281 0.008434262873252907 -0.02900393578543369 -0.011904459100438294 0.018466750892970535 24.062225550872313 -0.03962441202165911 -0.024031098724648182 28.906202460279815 0.03745803949659551 -0.049680432093814716 28.842538295247884 0.0017169295827498148 -0.006371647698873885 5.1794643516695045 1.4306716464403486 11.868765188525138 -70.81365618216779 30.360852861543204 -8.16144867914903 -8.655792805890595 -3.814528589436777 -87.58488052691095 -9.412214255381906 -4.089798332508165 3.0423289804238864 -0.442256809621425 0.040617209664622 -8.074329316724466 -0.02284418962032992 -0.018319464418216937 44.616735805472366 -0.02627162277207174 -0.04840256108837278 44.53906866167268 12.447899102088307 0.039128730555295574 0.006146572198912065 0.00013755337935493923 -0.040260449978169306 0.02653755275291492 0.037707367713729345 -0.009264443479057475 -0.04083674142861464 11.071883452308219 0.0040640400253015106 -0.04809919832352725 -0.016706035662115745 -0.023541067052851528 0.04904327246488717 -0.03843558710203802 0.04573666617515649 0.031516478740469527 4.7643497515971855 -0.00843329154199404 -0.012436650606189769 -0.014602230060321995 0.009495267460441804 0.024844038536929854 0.02355615306862409 0.03171069822416327 0.005166526338180391 -5.636774017963289 -0.007067625558035465 -0.004836223032580671 -6.727537240593903 0.02902630422225456 -0.03764450609673692 -6.753576068283348 0.02120676008594183 -0.0003044921092602341 -0.040120874845443986 0.03939200857209429 -0.03833948247191547 8.06989424480286 3.4926818201762564 -19.24625566136425 0.01594713128642396 10.375286423233165 0.021787893846803588 -5.63560477732818 -15.666819275245068 3.171474066495716 -0.04418631701213495 0.01765858853000449 -0.01816755833355983 0.004742596726087535 4.708443899400421 -0.02171416943950946 12.49724201276582 -8.234480096497066 6.8647746913931424 -0.011905596084388598 46.40436724828907 0.017146014061959456 -4.349350612084498 -14.70943791948465 -3.8194733097748874 0.04795362028246783 -0.03297130309734415 -0.041773880895888994 0.005666418597765104 -10.731129256000568 -0.044615178451688164 
